<?xml version="1.0" standalone="no"?>
<!DOCTYPE svg PUBLIC "-//W3C//DTD SVG 20010904//EN"
 "http://www.w3.org/TR/2001/REC-SVG-20010904/DTD/svg10.dtd">
<svg version="1.0" xmlns="http://www.w3.org/2000/svg"
 width="310.000000pt" height="310.000000pt" viewBox="0 0 310.000000 310.000000"
 preserveAspectRatio="xMidYMid meet">
<metadata>
Created by potrace 1.14, written by Peter Selinger 2001-2017
</metadata>
<g transform="translate(0.000000,310.000000) scale(0.100000,-0.100000)"
fill="#000000" stroke="none">
<path d="M1316 3085 c-35 -18 -63 -52 -98 -119 -43 -80 -38 -91 23 -50 71 48
86 46 91 -13 l4 -48 -201 -196 c-211 -208 -242 -235 -376 -339 -159 -124 -245
-230 -288 -357 -61 -181 -6 -328 163 -443 49 -33 300 -156 367 -180 l37 -13
-54 -80 c-29 -43 -55 -84 -57 -90 -2 -7 -15 1 -28 18 -59 74 -152 143 -237
175 -68 26 -181 22 -239 -8 -78 -41 -127 -128 -119 -212 6 -76 62 -199 153
-339 143 -221 261 -328 380 -347 116 -18 231 83 258 228 l7 36 55 -24 c137
-61 263 -91 352 -85 20 2 31 -1 27 -7 -15 -25 -7 -181 14 -262 39 -152 108
-250 215 -304 63 -31 158 -31 222 3 89 45 181 167 224 296 15 44 18 249 5 327
-10 64 -40 143 -71 190 -45 68 -143 118 -232 118 l-43 0 0 60 c0 33 2 60 5 60
3 0 42 -15 87 -34 98 -40 199 -72 260 -82 68 -11 198 -12 242 -2 50 11 136 52
163 78 110 102 173 260 171 429 -1 68 -11 117 -53 261 -9 30 -18 64 -20 75
-13 57 -17 76 -29 145 -8 41 -17 100 -21 130 -3 30 -8 63 -11 73 -3 10 -7 30
-9 45 -2 15 -6 41 -9 57 -3 17 -8 45 -11 62 -7 45 -34 158 -42 180 -4 13 2 11
24 -9 16 -16 32 -28 35 -28 9 0 0 68 -16 117 -33 99 -100 171 -196 209 -25 10
-54 27 -65 37 -39 37 -138 100 -209 132 -117 54 -203 72 -341 70 -66 -2 -129
-5 -140 -8 -89 -23 -118 -33 -180 -65 -38 -20 -73 -38 -76 -40 -4 -2 -6 19 -4
45 5 108 -41 163 -109 128z"/>
</g>
</svg>
